<?xml version="1.0" encoding="UTF-8" standalone="no"?>
<!DOCTYPE svg PUBLIC "-//W3C//DTD SVG 1.1//EN" "http://www.w3.org/Graphics/SVG/1.1/DTD/svg11.dtd">
<svg width="100%" height="100%" viewBox="0 0 443 189" version="1.1" xmlns="http://www.w3.org/2000/svg" xmlns:xlink="http://www.w3.org/1999/xlink" xml:space="preserve" xmlns:serif="http://www.serif.com/" style="fill-rule:evenodd;clip-rule:evenodd;stroke-linejoin:round;stroke-miterlimit:2;">
    <g id="base">
    </g>
    <g id="fond">
    </g>
    <g id="Calque-1" serif:id="Calque 1">
        <g transform="matrix(1,0,0,1,182.47,59.8263)">
            <path d="M0,31.24C-3.139,31.24 -5.822,30.689 -8.052,29.59C-10.281,28.49 -11.976,26.781 -13.134,24.464C-14.293,22.147 -14.871,19.199 -14.871,15.62C-14.871,10.34 -13.573,6.417 -10.978,3.849C-8.382,1.283 -4.723,0 0,0C2.581,0 4.898,0.439 6.952,1.32C9.005,2.2 10.626,3.519 11.814,5.28C13.002,7.04 13.597,9.255 13.597,11.924L6.996,11.924C6.996,10.515 6.71,9.328 6.139,8.36C5.566,7.391 4.76,6.651 3.719,6.137C2.677,5.625 1.467,5.368 0.089,5.368C-1.789,5.368 -3.337,5.735 -4.554,6.468C-5.771,7.201 -6.666,8.279 -7.237,9.702C-7.81,11.125 -8.096,12.863 -8.096,14.916L-8.096,16.28C-8.096,18.391 -7.803,20.159 -7.216,21.582C-6.629,23.005 -5.741,24.075 -4.554,24.794C-3.365,25.512 -1.833,25.872 0.045,25.872C1.511,25.872 2.787,25.623 3.872,25.124C4.957,24.625 5.793,23.891 6.381,22.924C6.967,21.956 7.261,20.767 7.261,19.36L13.597,19.36C13.597,22.029 13.017,24.244 11.858,26.004C10.699,27.763 9.094,29.077 7.04,29.942C4.987,30.806 2.641,31.24 0,31.24" style="fill:white;fill-rule:nonzero;"/>
        </g>
        <g transform="matrix(1,0,0,1,202.696,60.354)">
            <path d="M0,30.184L0,0L24.112,0L24.112,5.368L6.601,5.368L6.601,12.1L22.088,12.1L22.088,17.424L6.601,17.424L6.601,24.772L24.376,24.772L24.376,30.184L0,30.184Z" style="fill:white;fill-rule:nonzero;"/>
        </g>
        <g transform="matrix(1,0,0,1,233.883,60.354)">
            <path d="M0,30.184L0,0L6.028,0L18.172,16.28C18.349,16.486 18.568,16.772 18.832,17.138C19.097,17.505 19.345,17.864 19.58,18.216C19.814,18.568 19.977,18.847 20.064,19.052L20.284,19.052L20.284,0L26.488,0L26.488,30.184L20.46,30.184L8.053,13.508C7.759,13.097 7.451,12.643 7.128,12.144C6.805,11.646 6.57,11.264 6.424,11L6.204,11L6.204,30.184L0,30.184Z" style="fill:white;fill-rule:nonzero;"/>
        </g>
        <g transform="matrix(1,0,0,1,275.525,60.354)">
            <path d="M0,30.184L0,5.5L-9.681,5.5L-9.681,0L16.323,0L16.323,5.5L6.6,5.5L6.6,30.184L0,30.184Z" style="fill:white;fill-rule:nonzero;"/>
        </g>
        <g transform="matrix(1,0,0,1,303.9,76.5466)">
            <path d="M0,-2.201L9.107,-2.201C10.428,-2.201 11.454,-2.603 12.188,-3.411C12.921,-4.217 13.288,-5.309 13.288,-6.688C13.288,-7.568 13.126,-8.323 12.804,-8.955C12.48,-9.585 12.012,-10.061 11.396,-10.385C10.779,-10.707 10.017,-10.869 9.107,-10.869L0,-10.869L0,-2.201ZM-6.557,13.991L-6.557,-16.192L9.987,-16.192C12.217,-16.192 14.072,-15.797 15.554,-15.005C17.034,-14.213 18.142,-13.105 18.876,-11.682C19.608,-10.26 19.976,-8.625 19.976,-6.776C19.976,-4.811 19.535,-3.073 18.655,-1.562C17.775,-0.052 16.5,1.1 14.827,1.892L20.987,13.991L13.728,13.991L8.403,2.991L0,2.991L0,13.991L-6.557,13.991Z" style="fill:white;fill-rule:nonzero;"/>
        </g>
        <g transform="matrix(1,0,0,1,339.79,71.5743)">
            <path d="M0,7.744L9.372,7.744L6.688,0.307C6.57,-0.015 6.431,-0.403 6.271,-0.859C6.108,-1.313 5.94,-1.819 5.764,-2.376C5.588,-2.933 5.419,-3.484 5.258,-4.027C5.097,-4.569 4.942,-5.061 4.796,-5.5L4.532,-5.5C4.385,-4.943 4.194,-4.29 3.96,-3.542C3.725,-2.794 3.49,-2.075 3.256,-1.386C3.021,-0.696 2.83,-0.132 2.685,0.307L0,7.744ZM-10.824,18.964L0.792,-11.22L8.888,-11.22L20.504,18.964L13.42,18.964L11.264,13.023L-1.892,13.023L-4.048,18.964L-10.824,18.964Z" style="fill:white;fill-rule:nonzero;"/>
        </g>
        <g transform="matrix(1,0,0,1,365.416,60.354)">
            <path d="M0,30.184L0,0L6.557,0L6.557,24.596L21.78,24.596L21.78,30.184L0,30.184Z" style="fill:white;fill-rule:nonzero;"/>
        </g>
        <g transform="matrix(1,0,0,1,392.564,60.354)">
            <path d="M0,30.184L0,0L24.112,0L24.112,5.368L6.601,5.368L6.601,12.1L22.088,12.1L22.088,17.424L6.601,17.424L6.601,24.772L24.376,24.772L24.376,30.184L0,30.184Z" style="fill:white;fill-rule:nonzero;"/>
        </g>
        <g transform="matrix(1,0,0,1,168.962,98.354)">
            <path d="M0,30.184L0,0L6.557,0L6.557,24.596L21.78,24.596L21.78,30.184L0,30.184Z" style="fill:white;fill-rule:nonzero;"/>
        </g>
        <g transform="matrix(1,0,0,1,200.282,98.354)">
            <path d="M0,30.184L0,18.04L-11.703,0L-4.092,0L3.389,12.144L3.608,12.144L11.044,0L18.217,0L6.601,18.04L6.601,30.184L0,30.184Z" style="fill:white;fill-rule:nonzero;"/>
        </g>
        <g transform="matrix(1,0,0,1,235.697,103.194)">
            <path d="M0,20.504C1.437,20.504 2.698,20.299 3.784,19.888C4.869,19.478 5.778,18.861 6.512,18.04C7.245,17.219 7.803,16.214 8.185,15.025C8.565,13.838 8.756,12.482 8.756,10.956L8.756,9.592C8.756,8.037 8.565,6.659 8.185,5.456C7.803,4.253 7.245,3.249 6.512,2.442C5.778,1.636 4.869,1.027 3.784,0.616C2.698,0.205 1.437,-0 0,-0C-1.408,-0 -2.655,0.205 -3.74,0.616C-4.825,1.027 -5.735,1.636 -6.468,2.442C-7.201,3.249 -7.751,4.253 -8.118,5.456C-8.485,6.659 -8.668,8.037 -8.668,9.592L-8.668,10.956C-8.668,12.482 -8.485,13.838 -8.118,15.025C-7.751,16.214 -7.201,17.219 -6.468,18.04C-5.735,18.861 -4.825,19.478 -3.74,19.888C-2.655,20.299 -1.408,20.504 0,20.504M0,25.872C-3.197,25.872 -5.955,25.3 -8.271,24.155C-10.59,23.012 -12.364,21.281 -13.596,18.964C-14.828,16.647 -15.443,13.743 -15.443,10.252C-15.443,6.703 -14.828,3.777 -13.596,1.474C-12.364,-0.829 -10.59,-2.545 -8.271,-3.674C-5.955,-4.803 -3.197,-5.368 0,-5.368C3.256,-5.368 6.035,-4.803 8.338,-3.674C10.641,-2.545 12.408,-0.829 13.641,1.474C14.872,3.777 15.488,6.703 15.488,10.252C15.488,13.743 14.872,16.647 13.641,18.964C12.408,21.281 10.641,23.012 8.338,24.155C6.035,25.3 3.256,25.872 0,25.872" style="fill:white;fill-rule:nonzero;"/>
        </g>
        <g transform="matrix(1,0,0,1,257.797,98.354)">
            <path d="M0,30.184L0,0L6.028,0L18.172,16.28C18.349,16.486 18.568,16.772 18.832,17.138C19.097,17.505 19.345,17.864 19.58,18.216C19.814,18.568 19.977,18.847 20.064,19.052L20.284,19.052L20.284,0L26.488,0L26.488,30.184L20.46,30.184L8.053,13.508C7.759,13.097 7.451,12.643 7.128,12.144C6.805,11.646 6.57,11.264 6.424,11L6.204,11L6.204,30.184L0,30.184Z" style="fill:white;fill-rule:nonzero;"/>
        </g>
        <g transform="matrix(1,0,0,1,141.363,68.6784)">
            <path d="M0,56.517C0,67.768 -6.188,78.004 -16.149,83.232L-56.114,104.208C-56.104,104.157 -56.083,104.11 -56.083,104.057L-56.083,21.881L0,21.881L0,56.517ZM-61.257,13.125C-61.257,13.125 -61.897,11.726 -62.722,10.996C-63.542,10.261 -66.107,9.346 -66.107,9.346C-66.107,9.346 -65.951,6.93 -66.406,5.476C-66.52,5.106 -67.195,4.125 -67.764,3.659C-68.338,3.18 -68.894,2.51 -70.539,1.051C-72.189,-0.414 -73.008,-1.293 -73.008,-1.293C-73.008,-1.293 -73.708,-1.12 -74.377,-0.564C-75.047,0.004 -77.266,2.109 -78.493,2.66C-79.844,3.258 -83.869,4.669 -86.686,5.183C-88.527,5.518 -90.381,4.807 -91.225,5.154C-91.93,5.447 -92.068,6.756 -92.068,6.756C-92.068,6.756 -92.062,8.03 -91.769,8.802C-91.476,9.567 -91.141,9.812 -90.542,10.016C-89.089,10.517 -89.239,10.775 -88.533,11.068C-87.301,11.505 -87.738,13.023 -87.738,13.023L-94.047,13.023C-94.352,13.023 -94.843,12.097 -95.124,11.57C-95.59,9.872 -97.043,8.496 -97.043,8.496C-97.043,8.496 -96.218,6.78 -95.865,5.919C-94.998,3.802 -94.316,0.315 -94.316,0.315C-94.316,0.315 -90.417,-0.079 -89.06,-0.33C-87.815,-0.558 -86.853,-0.946 -86.446,-1.293C-86.034,-1.634 -83.713,-4.451 -83.127,-5.3C-82.619,-6.024 -80.137,-10.366 -79.449,-12.405C-79.33,-12.77 -79.204,-13.182 -79.096,-13.595C-81.5,-13.326 -84.359,-12.459 -86.135,-11.46C-87.929,-10.455 -90.429,-8.811 -92.911,-7.812C-95.667,-6.706 -98.939,-7.376 -100.309,-7.926C-101.08,-8.236 -103.233,-8.111 -104.333,-10.061C-105.249,-11.699 -104.8,-13.392 -104.8,-13.392C-104.8,-13.392 -102.222,-12.477 -101.176,-11.705C-100.368,-11.101 -99.663,-9.612 -99.663,-9.612C-99.663,-9.612 -99.13,-9.271 -97.761,-9.104C-96.392,-8.936 -95.303,-8.972 -93.372,-9.792C-91.428,-10.61 -84.431,-16.394 -80.43,-17.931C-79.306,-18.361 -78.086,-18.69 -76.883,-18.947C-76.537,-19.121 -76.094,-19.294 -75.532,-19.462C-72.649,-20.347 -70.311,-21.041 -67.154,-20.897C-64.002,-20.747 -62.31,-19.958 -56.12,-19.874C-52.406,-19.82 -49.153,-20.263 -48.77,-20.419C-48.453,-20.556 -48.19,-20.694 -47.969,-20.825L-47.902,-21.16L-48.387,-21.585C-48.226,-21.686 -47.765,-22.225 -47.311,-22.547C-46.862,-22.864 -46.509,-23.181 -46.103,-23.451C-45.277,-24.013 -44.931,-24.491 -44.691,-24.706C-44.452,-24.916 -44.476,-25.107 -44.476,-25.107C-44.476,-25.107 -44.667,-25.239 -45.014,-25.263C-45.355,-25.293 -45.594,-25.346 -45.594,-25.346C-45.594,-25.346 -45.839,-25.328 -45.361,-25.628C-44.883,-25.915 -44.823,-25.932 -44.314,-26.201C-43.961,-26.381 -43.226,-26.812 -42.694,-27.051C-42.162,-27.29 -41.013,-27.775 -40.505,-28.037C-40.002,-28.307 -40.08,-28.355 -40.08,-28.355C-40.451,-28.546 -40.637,-28.917 -40.637,-28.917C-40.397,-29.102 -39.47,-29.473 -38.878,-29.688C-38.292,-29.903 -37.844,-30.089 -37.413,-30.304C-36.989,-30.513 -36.803,-30.914 -36.803,-30.914C-37.15,-30.992 -37.275,-31.434 -37.275,-31.434C-37.275,-31.434 -36.905,-31.476 -36.611,-31.548C-36.001,-31.691 -34.668,-32.218 -34.327,-32.272C-33.55,-32.409 -32.868,-32.409 -32.216,-32.487C-31.63,-32.559 -30.781,-32.894 -30.512,-32.995C-30.237,-33.097 -29.441,-33.247 -29.441,-33.247C-28.448,-33.432 -28.311,-33.485 -27.653,-33.527C-27.336,-33.546 -25.961,-33.779 -25.405,-33.857C-24.842,-33.94 -23.802,-34.036 -23.479,-34.084C-23.03,-34.155 -22.48,-34.132 -22.48,-34.132C-22.289,-33.946 -21.798,-33.659 -21.421,-33.581C-21.057,-33.498 -20.147,-33.019 -19.376,-32.565C-18.604,-32.116 -17.827,-31.53 -17.827,-31.53C-17.457,-31.769 -17.056,-31.739 -17.056,-31.739C-16.978,-31.368 -16.894,-31.315 -16.763,-31.075C-16.631,-30.837 -16.524,-30.591 -16.23,-29.957C-15.938,-29.317 -15.752,-28.115 -15.752,-28.115C-15.752,-28.115 -15.004,-27.398 -14.711,-27.158C-14.418,-26.919 -13.964,-26.626 -13.803,-26.542C-13.509,-26.399 -13.432,-26.094 -13.408,-25.986C-13.378,-25.879 -13.168,-24.892 -12.977,-24.76C-12.792,-24.629 -12.421,-24.013 -12.23,-23.881C-12.044,-23.75 -11.673,-23.241 -11.351,-22.919C-11.034,-22.601 -10.37,-22.2 -10.101,-21.908C-9.832,-21.615 -9.7,-21.376 -9.7,-21.376C-8.982,-20.921 -8.851,-20.389 -8.851,-20.389C-9.006,-20.227 -9.084,-20.095 -9.167,-19.725C-9.246,-19.348 -9.778,-18.9 -9.778,-18.9L-9.915,-18.499C-9.993,-18.415 -9.939,-18.337 -10.125,-17.883C-10.316,-17.428 -10.705,-17.422 -10.89,-17.237C-11.082,-17.046 -10.902,-16.818 -11.01,-16.418C-11.111,-16.017 -11.249,-15.778 -11.488,-15.563C-11.728,-15.353 -11.673,-15.246 -11.966,-15.036C-12.253,-14.821 -12.283,-14.821 -12.606,-14.659C-12.923,-14.498 -12.93,-14.444 -12.93,-14.444C-12.93,-14.444 -13.283,-14.624 -13.545,-14.97C-13.809,-15.317 -13.982,-15.15 -14.377,-15.233C-14.771,-15.317 -15.226,-15.503 -15.543,-15.491C-15.991,-15.467 -16.404,-15.21 -16.62,-15.12C-16.835,-15.036 -16.996,-14.576 -17.217,-14.229C-17.433,-13.876 -17.516,-13.482 -17.648,-13.182C-17.779,-12.871 -18.103,-12.56 -18.103,-12.56C-18.234,-12.907 -18.437,-13.398 -18.437,-13.398C-18.527,-13.266 -18.7,-13.093 -19.005,-12.477C-19.311,-11.867 -19.663,-10.91 -20.142,-10.425C-20.62,-9.947 -20.489,-9.899 -20.883,-9.421C-21.278,-8.942 -21.517,-8.745 -21.517,-8.745C-21.661,-9.109 -21.679,-9.492 -21.679,-9.492C-21.679,-9.492 -22.193,-8.858 -22.546,-8.637C-22.893,-8.416 -23.742,-7.938 -23.958,-7.555C-24.244,-7.041 -24.089,-7.967 -24.549,-7.023C-24.747,-6.616 -25.428,-5.91 -25.859,-5.426C-26.026,-5.246 -26.182,-5.079 -26.35,-4.918L-26.445,-3.913L-25.883,-2.597C-25.883,-2.597 -23.365,0.758 -22.127,2.217C-20.895,3.682 -18.437,7.139 -17.965,7.516C-17.504,7.887 -16.135,8.323 -15.321,8.634C-12.469,9.717 -13.527,10.195 -12.295,10.781C-11.063,11.367 -11.817,13.054 -11.817,13.054C-11.817,13.054 -14.526,13.048 -16.099,12.892C-16.966,12.808 -17.068,12.605 -18.031,11.726C-18.988,10.853 -19.717,10.805 -19.717,10.805C-19.717,10.805 -22.121,10.111 -22.54,9.531C-23.18,8.64 -25.829,7.629 -25.829,7.629C-25.829,7.629 -27.378,4.986 -28.479,4.113C-29.573,3.234 -32.683,1.924 -33.92,1.195C-34.124,1.075 -34.357,0.937 -34.614,0.788C-34.817,0.901 -35.033,1.027 -35.284,1.17C-36.116,1.649 -38.549,2.068 -40.864,2.283C-41.199,2.755 -41.485,3.138 -42.221,4.101C-42.813,4.866 -45.893,7.905 -45.893,7.905C-45.893,7.905 -45.624,9.19 -45.223,9.483C-44.53,10.045 -44.344,9.752 -42.658,10.554C-42.227,10.757 -41.88,11.194 -41.504,11.409C-40.625,11.912 -41.091,13.125 -41.091,13.125L-47.723,13.125C-47.723,13.125 -47.986,12.527 -48.166,12.186C-48.489,11.57 -49.427,10.805 -49.721,10.446C-50.014,10.087 -51.037,7.539 -51.037,7.539C-51.037,7.539 -49.003,4.992 -48.865,2.953C-48.812,2.128 -48.925,1.541 -49.087,1.128C-50.654,0.537 -52.155,-0.085 -52.735,-0.342C-55.617,-1.64 -59.397,-1.048 -61.801,-0.641C-61.723,0.1 -61.627,1.278 -61.627,2.51C-61.627,4.556 -61.096,6.948 -60.802,7.48C-60.509,8.012 -59.217,8.867 -58.703,9.274C-57.95,9.878 -57.998,9.501 -55.378,10.434C-54.637,10.691 -54.368,11.289 -54.068,11.594C-53.925,11.738 -53.297,12.127 -53.584,13.125L-61.257,13.125ZM-97.642,83.232C-107.604,78.004 -113.792,67.768 -113.792,56.517L-113.792,21.881L-57.708,21.881L-57.708,104.057C-57.708,104.11 -57.688,104.157 -57.678,104.208L-97.642,83.232ZM1.421,-36.318C1.314,-36.49 1.159,-36.627 0.981,-36.735C0.94,-36.761 0.905,-36.794 0.861,-36.815C0.18,-37.135 -0.537,-37.465 -1.289,-37.802C-2.792,-38.476 -4.435,-39.179 -6.21,-39.893C-17.752,-44.529 -34.924,-49.583 -56.087,-49.709C-56.177,-49.71 -56.266,-49.71 -56.355,-49.71C-56.534,-49.711 -56.713,-49.712 -56.893,-49.712C-64.396,-49.711 -71.384,-49.074 -77.825,-48.065C-94.114,-45.513 -106.787,-40.505 -114.601,-36.839C-114.917,-36.691 -115.144,-36.432 -115.279,-36.126C-115.319,-36.036 -115.353,-35.944 -115.374,-35.847C-115.396,-35.746 -115.417,-35.644 -115.417,-35.537L-115.417,56.517C-115.417,68.336 -108.862,79.179 -98.397,84.671L-57.704,106.029C-57.451,106.163 -57.173,106.229 -56.896,106.229C-56.618,106.229 -56.34,106.163 -56.087,106.029L-15.395,84.671C-4.93,79.179 1.625,68.336 1.625,56.517L1.625,-35.595C1.625,-35.857 1.552,-36.106 1.421,-36.318" style="fill:white;fill-rule:nonzero;"/>
        </g>
        <g transform="matrix(1,0,0,1,52.3783,105.81)">
            <path d="M0,18.077C-0.372,18.481 -0.815,18.687 -1.318,18.689L-1.327,18.689C-2.229,18.689 -3.292,18.063 -4.402,16.879C-5.763,15.428 -7.646,13.161 -8.767,11.793L-8.706,11.694C-7.024,12.075 -3.773,12.926 -1.879,14.175C-0.554,15.049 0.268,16.055 0.376,16.935C0.429,17.365 0.302,17.749 0,18.077M-5.05,18.552C-5.716,18.446 -6.384,17.909 -7.033,16.957C-7.96,15.598 -8.537,14.228 -8.893,13.141C-7.765,14.505 -6.248,16.304 -5.098,17.531C-4.781,17.869 -4.463,18.167 -4.147,18.426C-4.449,18.551 -4.751,18.601 -5.05,18.552M-11.964,8.599C-13.333,7.477 -15.588,5.603 -17.034,4.247C-18.224,3.132 -18.85,2.064 -18.846,1.161C-18.843,0.659 -18.637,0.216 -18.232,-0.155C-17.953,-0.413 -17.632,-0.543 -17.277,-0.543C-17.216,-0.543 -17.154,-0.539 -17.091,-0.531C-16.21,-0.424 -15.204,0.398 -14.33,1.723C-13.087,3.61 -12.238,6.844 -11.854,8.531L-11.964,8.599ZM-17.112,6.878C-18.065,6.228 -18.602,5.56 -18.708,4.893C-18.755,4.595 -18.706,4.293 -18.581,3.992C-18.322,4.307 -18.024,4.625 -17.687,4.942C-16.459,6.092 -14.659,7.61 -13.295,8.737C-14.383,8.381 -15.753,7.804 -17.112,6.878M-1.354,13.38C-3.271,12.116 -6.366,11.258 -8.177,10.834C-7.918,10.395 -7.984,9.837 -8.346,9.475L-8.416,9.405C-7.866,9.955 -6.974,9.955 -6.423,9.405C-5.977,8.958 -5.912,8.296 -6.189,7.764C-5.565,7.289 -4.671,7.329 -4.102,7.899C-3.916,8.085 -3.613,8.085 -3.428,7.899C-3.241,7.713 -3.241,7.412 -3.428,7.225C-4.348,6.305 -5.798,6.25 -6.797,7.037L-7.207,6.628C-6.419,5.629 -6.474,4.179 -7.396,3.258C-7.581,3.072 -7.884,3.072 -8.069,3.258C-8.256,3.444 -8.256,3.745 -8.069,3.931C-7.5,4.501 -7.459,5.395 -7.934,6.019C-8.465,5.742 -9.128,5.808 -9.574,6.254C-10.124,6.805 -10.124,7.697 -9.574,8.247L-9.645,8.177C-10.003,7.817 -10.557,7.751 -10.994,8.004C-11.419,6.19 -12.275,3.109 -13.535,1.198C-14.577,-0.383 -15.799,-1.333 -16.975,-1.478C-17.68,-1.565 -18.342,-1.35 -18.878,-0.857C-19.477,-0.307 -19.795,0.39 -19.799,1.156C-19.802,1.781 -19.591,2.443 -19.19,3.122C-19.584,3.739 -19.752,4.396 -19.649,5.043C-19.5,5.979 -18.828,6.861 -17.649,7.665C-16.083,8.733 -14.519,9.366 -13.328,9.733C-13.505,10.118 -13.508,10.563 -13.323,10.953C-13.875,10.89 -14.618,10.883 -15.466,11.093L-11.248,15.31C-11.038,14.459 -11.046,13.713 -11.11,13.16C-10.72,13.34 -10.276,13.334 -9.895,13.155C-9.527,14.348 -8.894,15.92 -7.82,17.494C-7.018,18.672 -6.135,19.345 -5.199,19.493C-5.068,19.514 -4.937,19.524 -4.806,19.524C-4.286,19.524 -3.767,19.353 -3.273,19.038C-2.602,19.433 -1.946,19.642 -1.327,19.642L-1.314,19.642C-0.546,19.64 0.15,19.321 0.701,18.723C1.194,18.187 1.409,17.529 1.321,16.819C1.178,15.643 0.228,14.422 -1.354,13.38" style="fill:white;fill-rule:nonzero;"/>
        </g>
        <g transform="matrix(0.707036,0.707178,0.707178,-0.707036,34.1353,119.395)">
            <path d="M-0.326,-2.773L6.693,-2.773C6.857,-2.275 6.985,-1.738 7.055,-1.147L-0.687,-1.148C-0.617,-1.739 -0.49,-2.275 -0.326,-2.773" style="fill:white;fill-rule:nonzero;"/>
        </g>
        <g transform="matrix(0.707107,0.707107,0.707107,-0.707107,36.5216,116.898)">
            <path d="M-0.664,-2.977L7.188,-2.977C7.155,-2.379 7.07,-1.836 6.937,-1.353L-0.413,-1.351C-0.547,-1.836 -0.632,-2.379 -0.664,-2.977" style="fill:white;fill-rule:nonzero;"/>
        </g>
        <g transform="matrix(1,0,0,1,32.1273,123.827)">
            <path d="M0,2.078C0.727,2.805 1.834,3.08 3.08,2.859L-0.782,-1.002C-1.001,0.244 -0.727,1.35 0,2.078" style="fill:white;fill-rule:nonzero;"/>
        </g>
        <g transform="matrix(1,0,0,1,74.9266,128.359)">
            <path d="M0,18.077C-0.372,18.481 -0.815,18.687 -1.318,18.689L-1.327,18.689C-2.229,18.689 -3.292,18.063 -4.402,16.879C-5.763,15.428 -7.646,13.161 -8.767,11.793L-8.706,11.694C-7.024,12.075 -3.773,12.926 -1.879,14.175C-0.554,15.049 0.268,16.055 0.376,16.935C0.429,17.365 0.302,17.749 0,18.077M-5.05,18.552C-5.716,18.446 -6.384,17.909 -7.033,16.957C-7.96,15.598 -8.537,14.228 -8.893,13.14C-7.765,14.505 -6.248,16.304 -5.098,17.531C-4.781,17.869 -4.463,18.167 -4.147,18.426C-4.449,18.551 -4.751,18.6 -5.05,18.552M-11.964,8.598C-13.333,7.477 -15.588,5.602 -17.034,4.247C-18.224,3.132 -18.85,2.064 -18.846,1.161C-18.843,0.659 -18.637,0.216 -18.232,-0.155C-17.953,-0.413 -17.632,-0.543 -17.277,-0.543C-17.216,-0.543 -17.154,-0.539 -17.091,-0.531C-16.21,-0.424 -15.204,0.398 -14.33,1.723C-13.087,3.609 -12.238,6.844 -11.854,8.531L-11.964,8.598ZM-17.112,6.878C-18.065,6.228 -18.602,5.56 -18.708,4.893C-18.755,4.595 -18.706,4.293 -18.581,3.991C-18.322,4.307 -18.024,4.625 -17.687,4.942C-16.459,6.092 -14.659,7.609 -13.295,8.737C-14.383,8.381 -15.753,7.804 -17.112,6.878M-1.354,13.38C-3.271,12.115 -6.366,11.258 -8.177,10.834C-7.918,10.395 -7.984,9.837 -8.346,9.474L-8.416,9.405C-7.866,9.955 -6.974,9.955 -6.423,9.404C-5.977,8.958 -5.912,8.296 -6.189,7.764C-5.565,7.289 -4.671,7.329 -4.102,7.899C-3.916,8.085 -3.613,8.085 -3.428,7.899C-3.241,7.713 -3.241,7.412 -3.428,7.225C-4.348,6.305 -5.798,6.25 -6.797,7.037L-7.207,6.628C-6.419,5.629 -6.474,4.179 -7.396,3.258C-7.581,3.072 -7.884,3.072 -8.069,3.258C-8.256,3.444 -8.256,3.745 -8.069,3.931C-7.5,4.501 -7.459,5.395 -7.934,6.019C-8.465,5.742 -9.128,5.807 -9.574,6.254C-10.124,6.805 -10.124,7.696 -9.574,8.247L-9.645,8.177C-10.003,7.817 -10.557,7.751 -10.994,8.004C-11.419,6.19 -12.275,3.108 -13.535,1.198C-14.577,-0.383 -15.799,-1.333 -16.975,-1.478C-17.68,-1.565 -18.342,-1.35 -18.878,-0.857C-19.477,-0.307 -19.795,0.39 -19.799,1.156C-19.802,1.78 -19.591,2.443 -19.19,3.122C-19.584,3.739 -19.752,4.395 -19.649,5.043C-19.5,5.979 -18.828,6.861 -17.649,7.665C-16.083,8.732 -14.519,9.365 -13.328,9.733C-13.505,10.117 -13.508,10.562 -13.323,10.953C-13.875,10.89 -14.618,10.883 -15.466,11.093L-11.248,15.31C-11.038,14.459 -11.046,13.713 -11.11,13.16C-10.72,13.34 -10.276,13.334 -9.895,13.155C-9.527,14.348 -8.894,15.92 -7.82,17.494C-7.018,18.672 -6.135,19.345 -5.199,19.493C-5.068,19.514 -4.937,19.524 -4.806,19.524C-4.286,19.524 -3.767,19.353 -3.273,19.038C-2.602,19.433 -1.946,19.642 -1.327,19.642L-1.314,19.642C-0.546,19.639 0.15,19.321 0.701,18.723C1.194,18.187 1.409,17.529 1.321,16.819C1.178,15.643 0.228,14.422 -1.354,13.38" style="fill:white;fill-rule:nonzero;"/>
        </g>
        <g transform="matrix(0.707036,0.707178,0.707178,-0.707036,56.6836,141.944)">
            <path d="M-0.326,-2.773L6.693,-2.773C6.857,-2.275 6.985,-1.738 7.055,-1.147L-0.687,-1.148C-0.617,-1.739 -0.49,-2.275 -0.326,-2.773" style="fill:white;fill-rule:nonzero;"/>
        </g>
        <g transform="matrix(0.707107,0.707107,0.707107,-0.707107,59.0699,139.447)">
            <path d="M-0.664,-2.977L7.188,-2.977C7.155,-2.379 7.07,-1.836 6.937,-1.353L-0.413,-1.351C-0.547,-1.836 -0.632,-2.379 -0.664,-2.977" style="fill:white;fill-rule:nonzero;"/>
        </g>
        <g transform="matrix(1,0,0,1,54.6756,146.377)">
            <path d="M0,2.078C0.727,2.805 1.834,3.08 3.08,2.859L-0.782,-1.002C-1.001,0.244 -0.727,1.35 0,2.078" style="fill:white;fill-rule:nonzero;"/>
        </g>
        <g transform="matrix(1,0,0,1,99.5863,140.709)">
            <path d="M0,-2.422C0.356,-4.095 1.343,-5.528 2.777,-6.46C3.828,-7.142 5.026,-7.494 6.25,-7.494C6.697,-7.494 7.148,-7.446 7.596,-7.352C11.049,-6.615 13.259,-3.207 12.523,0.245C11.787,3.699 8.376,5.908 4.928,5.174C3.255,4.817 1.821,3.831 0.891,2.396C-0.04,0.962 -0.356,-0.75 0,-2.422M4.729,6.105C5.243,6.216 5.757,6.268 6.264,6.268C9.659,6.267 12.72,3.896 13.455,0.444C14.301,-3.523 11.762,-7.438 7.795,-8.283C5.878,-8.69 3.908,-8.329 2.259,-7.259C0.61,-6.19 -0.522,-4.542 -0.932,-2.621C-1.342,-0.699 -0.979,1.266 0.091,2.915C1.16,4.563 2.808,5.696 4.729,6.105" style="fill:white;fill-rule:nonzero;"/>
        </g>
        <g transform="matrix(1,0,0,1,94.2928,112.988)">
            <path d="M0,24.168C1.154,18.749 6.007,14.815 11.538,14.815C12.363,14.815 13.196,14.903 14.012,15.077C20.381,16.434 24.459,22.72 23.103,29.089C21.948,34.509 17.096,38.442 11.564,38.442C10.739,38.442 9.907,38.354 9.091,38.18C2.722,36.824 -1.356,30.538 0,24.168M21.613,6.915C22.657,5.489 24.336,4.639 26.105,4.638C27.289,4.638 28.422,5.009 29.381,5.711C31.854,7.521 32.393,11.005 30.583,13.479C29.541,14.904 27.861,15.755 26.092,15.755C24.908,15.755 23.775,15.384 22.816,14.682C20.344,12.872 19.804,9.388 21.613,6.915M16.987,2.408C14.557,2.408 12.247,1.36 10.649,-0.467C9.17,-2.159 8.438,-4.325 8.589,-6.567C8.739,-8.81 9.754,-10.859 11.445,-12.338C12.979,-13.679 14.944,-14.417 16.979,-14.417C19.409,-14.417 21.718,-13.37 23.316,-11.542C26.369,-8.05 26.012,-2.725 22.521,0.329C20.987,1.669 19.021,2.408 16.987,2.408M-1.094,31.126L-2.339,31.685L-1.458,33.646L-0.217,33.088C0.566,34.512 1.594,35.796 2.839,36.859L2.05,37.953L3.792,39.21L4.589,38.107C5.844,38.868 7.236,39.447 8.752,39.77C8.876,39.796 9,39.806 9.124,39.829L8.985,41.186L11.124,41.405L11.262,40.051C11.362,40.053 11.464,40.067 11.564,40.067C13.12,40.067 14.636,39.795 16.055,39.288L16.608,40.519L18.569,39.638L18.015,38.404C19.438,37.622 20.712,36.581 21.775,35.335L22.875,36.129L24.133,34.387L23.036,33.595C23.797,32.341 24.369,30.944 24.692,29.428C24.718,29.304 24.729,29.18 24.751,29.056L26.109,29.195L26.328,27.056L24.978,26.918C25.015,25.257 24.736,23.642 24.197,22.131L25.442,21.572L24.561,19.611L23.319,20.168C22.581,18.826 21.618,17.614 20.466,16.589L21.981,17.69L22.794,16.57C23.506,16.939 24.259,17.182 25.024,17.297L25.024,18.678L27.172,18.678L27.172,17.288C27.946,17.17 28.699,16.932 29.401,16.569L30.215,17.69L31.954,16.426L31.136,15.301C31.406,15.035 31.664,14.753 31.895,14.438C32.136,14.108 32.336,13.763 32.514,13.41L33.833,13.838L34.498,11.795L33.179,11.367C33.308,10.587 33.309,9.795 33.181,9.023L34.498,8.595L33.833,6.552L32.516,6.98C32.17,6.29 31.708,5.651 31.137,5.088L31.954,3.964L30.215,2.701L29.4,3.822C28.689,3.453 27.937,3.211 27.172,3.096L27.172,1.712L25.024,1.712L25.024,3.105C24.251,3.223 23.498,3.46 22.797,3.823L22.716,3.712L24.454,2.452L23.713,1.432C24.776,0.47 25.583,-0.669 26.135,-1.902L27.333,-1.512L27.998,-3.555L26.795,-3.946C27.079,-5.301 27.086,-6.704 26.802,-8.066L27.998,-8.455L27.333,-10.498L26.143,-10.11C25.745,-10.998 25.212,-11.842 24.539,-12.612C24.278,-12.91 24.002,-13.187 23.716,-13.446L24.454,-14.461L22.715,-15.723L21.98,-14.711C20.763,-15.41 19.424,-15.836 18.057,-15.983L18.057,-17.237L15.909,-17.237L15.909,-15.978C14.551,-15.833 13.214,-15.414 11.988,-14.708L11.25,-15.724L9.511,-14.46L10.252,-13.441C9.189,-12.479 8.383,-11.34 7.831,-10.108L6.632,-10.498L5.968,-8.455L7.17,-8.064C6.887,-6.709 6.879,-5.306 7.164,-3.944L5.968,-3.555L6.632,-1.512L7.823,-1.899C8.221,-1.012 8.753,-0.168 9.426,0.602C9.687,0.9 9.962,1.176 10.249,1.436L9.511,2.451L11.25,3.714L11.985,2.702C13.204,3.4 14.542,3.827 15.909,3.973L15.909,5.227L18.057,5.227L18.057,3.969C19.415,3.824 20.751,3.404 21.979,2.698L21.98,2.701L20.243,3.964L21.062,5.091C20.792,5.357 20.533,5.639 20.302,5.955C20.062,6.284 19.861,6.629 19.684,6.982L18.362,6.552L17.698,8.595L19.018,9.024C18.89,9.804 18.888,10.595 19.015,11.368L17.698,11.795L18.362,13.838L19.68,13.41C20.025,14.101 20.487,14.74 21.059,15.303L21.052,15.304L19.31,14.046L18.513,15.15C17.259,14.389 15.866,13.811 14.35,13.488C14.226,13.461 14.103,13.452 13.979,13.429L14.118,12.071L11.979,11.852L11.841,13.207C11.74,13.204 11.638,13.19 11.538,13.19C9.982,13.19 8.467,13.462 7.047,13.969L6.495,12.738L4.534,13.619L5.088,14.854C3.664,15.636 2.39,16.677 1.327,17.922L0.227,17.127L-1.031,18.87L0.066,19.662C-0.694,20.917 -1.267,22.314 -1.589,23.83C-1.616,23.954 -1.626,24.077 -1.649,24.201L-3.006,24.062L-3.225,26.201L-1.875,26.338C-1.913,28 -1.634,29.615 -1.094,31.126" style="fill:white;fill-rule:nonzero;"/>
        </g>
        <g transform="matrix(1,0,0,1,78.9906,101.746)">
            <path d="M0,18.077C-0.372,18.481 -0.815,18.687 -1.318,18.689L-1.327,18.689C-2.229,18.689 -3.292,18.063 -4.402,16.879C-5.763,15.428 -7.646,13.161 -8.767,11.793L-8.706,11.694C-7.024,12.075 -3.773,12.926 -1.879,14.175C-0.554,15.049 0.268,16.055 0.376,16.935C0.429,17.365 0.302,17.749 0,18.077M-5.05,18.552C-5.716,18.446 -6.384,17.909 -7.033,16.957C-7.96,15.598 -8.537,14.228 -8.893,13.141C-7.765,14.505 -6.248,16.304 -5.098,17.531C-4.781,17.869 -4.463,18.167 -4.147,18.426C-4.449,18.551 -4.751,18.601 -5.05,18.552M-11.964,8.599C-13.333,7.477 -15.588,5.603 -17.034,4.247C-18.224,3.132 -18.85,2.064 -18.846,1.161C-18.843,0.659 -18.637,0.216 -18.232,-0.155C-17.953,-0.413 -17.632,-0.543 -17.277,-0.543C-17.216,-0.543 -17.154,-0.539 -17.091,-0.531C-16.21,-0.424 -15.204,0.398 -14.33,1.723C-13.087,3.61 -12.238,6.844 -11.854,8.531L-11.964,8.599ZM-17.112,6.878C-18.065,6.228 -18.602,5.56 -18.708,4.893C-18.755,4.595 -18.706,4.293 -18.581,3.992C-18.322,4.307 -18.024,4.625 -17.687,4.942C-16.459,6.092 -14.659,7.61 -13.295,8.737C-14.383,8.381 -15.753,7.804 -17.112,6.878M-1.354,13.38C-3.271,12.116 -6.366,11.258 -8.177,10.834C-7.918,10.395 -7.984,9.837 -8.346,9.475L-8.416,9.405C-7.866,9.955 -6.974,9.955 -6.423,9.405C-5.977,8.958 -5.912,8.296 -6.189,7.764C-5.565,7.289 -4.671,7.329 -4.102,7.899C-3.916,8.085 -3.613,8.085 -3.428,7.899C-3.241,7.713 -3.241,7.412 -3.428,7.225C-4.348,6.305 -5.798,6.25 -6.797,7.037L-7.207,6.628C-6.419,5.629 -6.474,4.179 -7.396,3.258C-7.581,3.072 -7.884,3.072 -8.069,3.258C-8.256,3.444 -8.256,3.745 -8.069,3.931C-7.5,4.501 -7.459,5.395 -7.934,6.019C-8.465,5.742 -9.128,5.808 -9.574,6.254C-10.124,6.805 -10.124,7.697 -9.574,8.247L-9.645,8.177C-10.003,7.817 -10.557,7.751 -10.994,8.004C-11.419,6.19 -12.275,3.109 -13.535,1.198C-14.577,-0.383 -15.799,-1.333 -16.975,-1.478C-17.68,-1.565 -18.342,-1.35 -18.878,-0.857C-19.477,-0.307 -19.795,0.39 -19.799,1.156C-19.802,1.781 -19.591,2.443 -19.19,3.122C-19.584,3.739 -19.752,4.396 -19.649,5.043C-19.5,5.979 -18.828,6.861 -17.649,7.665C-16.083,8.733 -14.519,9.366 -13.328,9.733C-13.505,10.118 -13.508,10.563 -13.323,10.953C-13.875,10.89 -14.618,10.883 -15.466,11.093L-11.248,15.31C-11.038,14.459 -11.046,13.713 -11.11,13.16C-10.72,13.34 -10.276,13.334 -9.895,13.155C-9.527,14.348 -8.894,15.92 -7.82,17.494C-7.018,18.672 -6.135,19.345 -5.199,19.493C-5.068,19.514 -4.937,19.524 -4.806,19.524C-4.286,19.524 -3.767,19.353 -3.273,19.038C-2.602,19.433 -1.946,19.642 -1.327,19.642L-1.314,19.642C-0.546,19.639 0.15,19.321 0.701,18.723C1.194,18.187 1.409,17.529 1.321,16.819C1.178,15.643 0.228,14.422 -1.354,13.38" style="fill:white;fill-rule:nonzero;"/>
        </g>
        <g transform="matrix(0.707036,0.707178,0.707178,-0.707036,60.7476,115.331)">
            <path d="M-0.326,-2.773L6.693,-2.773C6.857,-2.275 6.985,-1.738 7.055,-1.147L-0.687,-1.148C-0.617,-1.739 -0.49,-2.275 -0.326,-2.773" style="fill:white;fill-rule:nonzero;"/>
        </g>
        <g transform="matrix(-0.707107,-0.707107,-0.707107,0.707107,62.8837,113.085)">
            <path d="M-6.936,0.998L0.413,0.998C0.547,1.482 0.633,2.025 0.664,2.622L-7.187,2.623C-7.156,2.025 -7.069,1.483 -6.936,0.998" style="fill:white;fill-rule:nonzero;"/>
        </g>
        <g transform="matrix(1,0,0,1,61.8192,118.983)">
            <path d="M0,3.64L-3.861,-0.221C-4.081,1.025 -3.807,2.131 -3.08,2.859C-2.353,3.585 -1.246,3.861 0,3.64" style="fill:white;fill-rule:nonzero;"/>
        </g>
    </g>
</svg>
